<?xml version="1.0" encoding="UTF-8" standalone="no"?>
<!-- Generator: Adobe Illustrator 16.0.0, SVG Export Plug-In . SVG Version: 6.00 Build 0)  -->

<svg
   xmlns:dc="http://purl.org/dc/elements/1.1/"
   xmlns:cc="http://creativecommons.org/ns#"
   xmlns:rdf="http://www.w3.org/1999/02/22-rdf-syntax-ns#"
   xmlns:svg="http://www.w3.org/2000/svg"
   xmlns="http://www.w3.org/2000/svg"
   xmlns:sodipodi="http://sodipodi.sourceforge.net/DTD/sodipodi-0.dtd"
   xmlns:inkscape="http://www.inkscape.org/namespaces/inkscape"
   version="1.1"
   x="0px"
   y="0px"
   width="300"
   height="150"
   viewBox="0 0 300 150"
   enable-background="new 0 0 320 240"
   xml:space="preserve"
   id="svg3004"
   inkscape:version="0.48.5 r10040"
   sodipodi:docname="Designer.svg"><metadata
   id="metadata3021"><rdf:RDF><cc:Work
       rdf:about=""><dc:format>image/svg+xml</dc:format><dc:type
         rdf:resource="http://purl.org/dc/dcmitype/StillImage" /></cc:Work></rdf:RDF></metadata><defs
   id="defs3019" /><sodipodi:namedview
   pagecolor="#ffffff"
   bordercolor="#666666"
   borderopacity="1"
   objecttolerance="10"
   gridtolerance="10"
   guidetolerance="10"
   inkscape:pageopacity="0"
   inkscape:pageshadow="2"
   inkscape:window-width="1536"
   inkscape:window-height="803"
   id="namedview3017"
   showgrid="false"
   showguides="true"
   inkscape:guide-bbox="true"
   inkscape:zoom="1.89375"
   inkscape:cx="198.71611"
   inkscape:cy="88.507717"
   inkscape:window-x="-8"
   inkscape:window-y="-8"
   inkscape:window-maximized="1"
   inkscape:current-layer="svg3004" />
<g
   id="Background"
   transform="translate(-13.617162,-31.095709)">
	<path
   stroke-miterlimit="10"
   d="m 32.743,66.119 c 0,0 -6.088,69.503 1.836,73.055 7.924,3.552 16.394,-87.158 20.765,-83.334 4.371,3.824 -9.486,108.913 -5.934,110.279 3.552,1.366 22.875,-117.656 27.246,-115.47 4.371,2.186 -13.311,107.818 -6.754,110.005 6.557,2.187 23.147,-105.087 28.612,-102.901 5.465,2.186 -8.47,85.246 -3.825,86.886 4.645,1.64 19.476,-77.7 24.667,-73.602 5.191,4.098 -6.908,70.597 -2.809,72.509 4.099,1.912 17.562,-83.165 20.841,-80.706 3.279,2.459 -3.901,88.083 0.197,89.175 4.098,1.092 7.53,-87.913 14.011,-88.082 6.481,-0.169 0.196,101.47 7.3,101.47 7.104,0 12.295,-107.65 15.847,-106.284 3.552,1.366 -8.743,106.011 -0.819,109.563 7.924,3.552 17.213,-119.672 21.584,-115.847 4.371,3.825 -7.649,104.918 -4.098,106.284 3.551,1.366 22.678,-101.093 27.049,-98.907 4.371,2.186 -13.114,91.256 -6.558,93.442 6.556,2.186 22.951,-90.437 28.416,-88.251 5.465,2.186 -12.022,79.508 -7.378,81.147 4.644,1.639 23.225,-86.612 28.416,-82.514 5.191,4.098 -9.563,83.334 -5.465,85.246 4.098,1.912 19.944,-81.694 23.224,-79.235 3.28,2.459 -11.747,82.787 -7.649,83.879 4.098,1.092 26.775,-72.131 26.775,-72.131"
   id="path3007"
   inkscape:connector-curvature="0"
   style="fill:none;stroke:#ffffff;stroke-width:23;stroke-linecap:round;stroke-linejoin:bevel;stroke-miterlimit:10" />
</g>
<g
   id="Designer"
   transform="translate(-13.617162,-31.095709)">
	<rect
   y="68.032997"
   width="320"
   height="103.934"
   id="rect3010"
   x="0"
   style="fill:none" />
	<text
   transform="translate(27.8828,121.9248)"
   font-size="120"
   id="text3012"
   style="font-size:120px;fill:#000000;font-family:LoversQuarrel"><tspan
     style="font-style:normal;font-variant:normal;font-weight:normal;font-stretch:normal;font-family:Lovers Quarrel;-inkscape-font-specification:Lovers Quarrel"
     id="tspan3023">Designer</tspan></text>


</g>
<g
   id="Mask"
   transform="translate(-13.617162,-31.095709)">
	<path
   display="inline"
   stroke-miterlimit="10"
   d="m 66.82,35.349 c 0,0 2.459,7.924 2.459,16.12 0,8.196 -11.202,24.317 -19.126,49.454 -7.924,25.137 -1.639,37.705 8.743,40.71 10.382,3.005 28.688,-15.027 28.962,-37.158 C 88.132,82.344 77.476,71.961 66.82,68.409 56.164,64.857 41.683,73.327 44.142,81.25 c 2.459,7.923 27.869,9.016 34.426,5.464 6.557,-3.552 13.388,-25.955 12.022,-27.868 -1.366,-1.913 -5.465,-5.465 -11.202,-3.279 -5.737,2.186 -17.486,34.7 -17.486,34.7 -7.172,17.333 -8.197,41.53 -6.284,34.153 1.913,-7.377 33.06,-38.525 12.568,-16.667 -20.492,21.858 14.754,15.574 24.044,12.568 9.29,-3.006 24.317,-15.027 22.404,-32.514 C 112.721,70.32 97.967,62.125 70.918,60.485 43.869,58.845 27.476,74.42 32.12,83.982 c 4.644,9.562 18.033,4.372 28.416,1.64 C 70.919,82.89 89.771,68.409 89.771,68.409 l 42.077,40.984 c 0,0 12.022,-13.661 3.005,-15.027 -9.017,-1.366 -18.579,18.853 -14.481,25.41 4.098,6.557 13.661,1.639 23.497,-7.104 9.836,-8.743 -7.872,31.966 -22.105,26.229 -14.233,-5.737 -14.676,-26.502 -9.264,-30.874 8.964,-1.639 25.631,-3.005 29.456,-3.005 0,0 8.471,-30.055 14.208,-28.416 5.737,1.639 16.12,29.509 9.836,27.869 -6.284,-1.64 -1.093,-5.191 -2.732,-8.197 -1.639,-3.006 -3.278,-8.47 -11.475,0.546 -8.197,9.016 6.557,12.295 5.191,19.399 -1.366,7.104 -17.213,9.563 -16.667,6.831 0.546,-2.732 17.212,0.819 25.136,-8.197 7.924,-9.017 4.69646,-18.624868 10.07311,-17.044092 3.8163,1.122022 -7.88611,18.136092 -4.33411,21.142092 3.552,3.006 10.929,-3.005 14.48,-5.191 3.551,-2.186 8.744,-16.121 15.848,-18.306 7.104,-2.185 9.562,-4.098 9.016,3.279 -0.546,7.377 -4.098,-3.279 -7.923,1.093 -3.825,4.372 -18.579,15.847 -16.394,18.853 3.552,7.104 13.389,-7.377 18.853,-13.661 0,0 -0.548,15.027 0.272,19.125 0.82,4.098 -2.73,39.072 -25.136,43.17 -22.405,4.098 -26.776,-9.289 -23.771,-13.935 3.005,-4.646 13.389,-15.848 27.596,-23.225 14.207,-7.377 28.688,-16.939 30.601,-19.672 0.928,-1.324 5.738,-20.765 -0.546,-23.771 -6.46,-3.089 -39.428,3.988 -37.979,2.732 0.491,-0.426 8.861,-6.603 15.027,-6.831 12.377,-0.457 26.775,5.282 27.049,5.191 1.64,-0.546 6.284,-0.273 4.099,10.929 -2.185,11.202 -5.465,21.311 -4.099,21.584 1.366,0.273 18.853,-25.137 21.312,-25.137 2.459,0 -10.88,26.332 -3.278,28.143 5.737,1.366 7.378,-1.64 9.017,-3.552 0,0 13.66,-7.65 16.393,-10.109 2.733,-2.459 11.202,-15.027 2.732,-16.12 -8.47,-1.093 -11.748,7.104 -13.388,12.295 -1.64,5.191 -6.012,13.662 -0.547,15.847 5.465,2.185 18.852,-1.366 22.404,-8.197 3.552,-6.831 -2.187,-20.492 -7.377,-22.951 -5.19,-2.459 -16.394,-1.366 -19.672,7.923 -3.278,9.289 -1.366,7.924 -1.366,7.924 0,0 19.672,-1.093 23.497,-1.913 3.825,-0.82 3.824,-24.863 4.918,-25.683 1.094,-0.82 6.011,0.546 6.284,9.29 0.273,8.744 -5.191,31.147 -4.918,32.514 0.273,1.367 0.548,-4.372 3.553,-9.563 3.005,-5.191 10.655,-16.394 15.573,-15.847 4.918,0.547 3.006,10.109 4.099,15.027"
   id="path3015"
   inkscape:connector-curvature="0"
   style="fill:none;stroke:#ffe033;stroke-width:7;stroke-miterlimit:10;display:inline"
   sodipodi:nodetypes="cssssssssscsssssssccssssccsssssscssssssccsssscccccsssccssssssscssssssc" />
</g>
</svg>